<?xml version="1.0" encoding="iso-8859-1"?>
<!-- Generator: Adobe Illustrator 19.0.0, SVG Export Plug-In . SVG Version: 6.00 Build 0)  -->
<svg version="1.1" id="Layer_1" xmlns="http://www.w3.org/2000/svg" xmlns:xlink="http://www.w3.org/1999/xlink" x="0px" y="0px"
	 viewBox="0 0 512 512" style="enable-background:new 0 0 512 512;" xml:space="preserve">
<circle style="fill:#263A7A;" cx="256" cy="256" r="256"/>
<path style="fill:#121149;" d="M507.875,301.977l-120.62-120.62l-10.521,12.635l-72.364-72.364L174.744,241.085l-44.404,29.163
	l35.202,35.202l-6.632,0.977l12.7,12.7l-7.571,7.571v10.899l12.173,12.173v11.03l-6.539,6.539l-6.839,15.777l10.778,15.896
	l-1.855,7.746l105.972,104.315C393.58,501.334,487.476,414.461,507.875,301.977z"/>
<path style="fill:#FFFFFF;" d="M174.659,408.002c-2.212,0-4.005-1.793-4.005-4.005c0-4.432-1.989-6.484-4.742-9.323
	c-3.12-3.217-7.001-7.22-7.001-14.898s3.882-11.683,7.001-14.9c2.753-2.839,4.742-4.891,4.742-9.321
	c0-4.432-1.989-6.482-4.742-9.321c-3.12-3.217-7.001-7.22-7.001-14.896c0-7.677,3.882-11.681,7.001-14.896
	c2.753-2.838,4.742-4.889,4.742-9.319c0-2.212,1.793-4.005,4.005-4.005c2.212,0,4.005,1.793,4.005,4.005
	c0,7.677-3.882,11.681-7.001,14.896c-2.753,2.838-4.742,4.889-4.742,9.319s1.989,6.482,4.742,9.319
	c3.119,3.217,7.001,7.22,7.001,14.898c0,7.677-3.882,11.681-7.001,14.898c-2.753,2.839-4.742,4.891-4.742,9.323
	c0,4.43,1.989,6.482,4.742,9.321c3.12,3.217,7.001,7.22,7.001,14.9C178.664,406.209,176.871,408.002,174.659,408.002z"/>
<path style="fill:#EAA22F;" d="M158.523,298.986l11.374-11.374c1.958-1.958,5.136-1.958,7.094,0l11.374,11.374
	c3.16,3.16,0.922,8.563-3.548,8.563h-22.747C157.601,307.55,155.364,302.146,158.523,298.986z"/>
<path style="fill:#FFFFFF;" d="M268.345,383.264c-2.212,0-4.005-1.793-4.005-4.005c0-4.43-1.989-6.482-4.742-9.321
	c-3.12-3.217-7.001-7.22-7.001-14.9c0-7.677,3.882-11.681,7.001-14.898c2.753-2.839,4.742-4.891,4.742-9.323
	c0-4.43-1.989-6.482-4.742-9.319c-3.119-3.217-7.001-7.22-7.001-14.898c0-7.677,3.882-11.681,7.001-14.896
	c2.753-2.838,4.742-4.889,4.742-9.319c0-2.212,1.793-4.005,4.005-4.005c2.212,0,4.005,1.793,4.005,4.005
	c0,7.677-3.882,11.681-7.001,14.896c-2.753,2.838-4.742,4.889-4.742,9.319c0,4.432,1.989,6.482,4.742,9.321
	c3.12,3.217,7.001,7.22,7.001,14.896c0,7.678-3.882,11.683-7.001,14.9c-2.753,2.839-4.742,4.891-4.742,9.321
	c0,4.432,1.989,6.484,4.742,9.323c3.12,3.217,7.001,7.22,7.001,14.898C272.35,381.471,270.557,383.264,268.345,383.264z"/>
<path style="fill:#477F3C;" d="M252.209,274.248l11.374-11.374c1.958-1.958,5.136-1.958,7.094,0l11.374,11.374
	c3.16,3.16,0.922,8.563-3.548,8.563h-22.75C251.287,282.81,249.049,277.407,252.209,274.248z"/>
<path style="fill:#FFFFFF;" d="M341.735,430.235c-2.212,0-4.005-1.793-4.005-4.005c0-4.432-1.989-6.484-4.742-9.323
	c-3.119-3.217-6.999-7.22-6.999-14.898s3.882-11.683,7.001-14.9c2.751-2.839,4.741-4.891,4.741-9.323
	c0-4.43-1.989-6.482-4.741-9.319c-3.12-3.217-7.001-7.22-7.001-14.896c0-7.678,3.882-11.681,7.001-14.898
	c2.751-2.838,4.741-4.889,4.741-9.319c0-2.212,1.793-4.005,4.005-4.005c2.212,0,4.005,1.793,4.005,4.005
	c0,7.677-3.882,11.679-6.999,14.896c-2.753,2.838-4.742,4.889-4.742,9.321c0,4.43,1.989,6.482,4.741,9.319
	c3.12,3.217,7.001,7.22,7.001,14.896c0,7.678-3.882,11.683-7.001,14.9c-2.751,2.839-4.741,4.891-4.741,9.323
	s1.989,6.484,4.741,9.321c3.12,3.217,7.001,7.22,7.001,14.9C345.74,428.442,343.947,430.235,341.735,430.235z"/>
<path style="fill:#A30F44;" d="M325.601,321.219l11.374-11.374c1.958-1.958,5.136-1.958,7.094,0l11.374,11.374
	c3.16,3.16,0.922,8.563-3.548,8.563h-22.75C324.679,329.781,322.439,324.379,325.601,321.219z"/>
<ellipse style="fill:#FFC61B;" cx="171.236" cy="210.248" rx="62.629" ry="79.262"/>
<path style="fill:#EAA22F;" d="M171.234,130.982c34.588,0,62.628,35.487,62.628,79.262s-28.039,79.262-62.628,79.262
	L171.234,130.982L171.234,130.982z"/>
<ellipse style="fill:#6CAF5F;" cx="268.102" cy="186.027" rx="62.629" ry="79.262"/>
<path style="fill:#477F3C;" d="M268.109,106.763c34.588,0,62.628,35.487,62.628,79.262s-28.039,79.262-62.628,79.262V106.763z"/>
<ellipse style="fill:#FF314F;" cx="340.764" cy="234.468" rx="62.629" ry="79.262"/>
<path style="fill:#A30F44;" d="M340.766,155.202c34.588,0,62.628,35.487,62.628,79.262s-28.039,79.262-62.628,79.262V155.202z"/>
<g>
</g>
<g>
</g>
<g>
</g>
<g>
</g>
<g>
</g>
<g>
</g>
<g>
</g>
<g>
</g>
<g>
</g>
<g>
</g>
<g>
</g>
<g>
</g>
<g>
</g>
<g>
</g>
<g>
</g>
</svg>
